<svg width="706" height="1161" viewBox="0 0 706 1161" fill="none" xmlns="http://www.w3.org/2000/svg">
<path d="M349 0C382.333 0.666667 457.6 4.5 492 14.5C535 27 527 59 536.5 129.5C544.1 185.9 587.333 224.333 608 236.5H90C110.667 224.333 153.9 185.9 161.5 129.5C171 59 163 27 206 14.5C240.4 4.5 315.667 0.666667 349 0Z" fill="url(#paint0_linear_191_69)"/>
<path d="M349 1160.5C315.667 1159.83 240.4 1156 206 1146C163 1133.5 171 1101.5 161.5 1031C153.9 974.6 110.667 936.167 90 924L608 924C587.333 936.167 544.1 974.6 536.5 1031C527 1101.5 535 1133.5 492 1146C457.6 1156 382.333 1159.83 349 1160.5Z" fill="url(#paint1_linear_191_69)"/>
<g filter="url(#filter0_i_191_69)">
<path d="M248.318 1014.5C246 1014.5 243.951 1014.18 242.17 1013.55C240.39 1012.92 238.894 1011.99 237.682 1010.76C236.47 1009.53 235.553 1008.03 234.932 1006.25C234.311 1004.47 234 1002.43 234 1000.14C234 997.917 234.314 995.932 234.943 994.182C235.58 992.432 236.5 990.947 237.705 989.727C238.917 988.5 240.386 987.564 242.114 986.92C243.848 986.277 245.811 985.955 248 985.955C250.129 985.955 251.992 986.303 253.591 987C255.197 987.689 256.538 988.625 257.614 989.807C258.697 990.981 259.508 992.303 260.045 993.773C260.591 995.242 260.864 996.758 260.864 998.318C260.864 999.417 260.811 1000.53 260.705 1001.66C260.598 1002.79 260.375 1003.83 260.034 1004.77C259.693 1005.71 259.167 1006.47 258.455 1007.05C257.75 1007.62 256.795 1007.91 255.591 1007.91C255.061 1007.91 254.477 1007.83 253.841 1007.66C253.205 1007.49 252.64 1007.22 252.148 1006.83C251.655 1006.44 251.364 1005.92 251.273 1005.27H251.136C250.955 1005.71 250.674 1006.13 250.295 1006.52C249.924 1006.92 249.436 1007.23 248.83 1007.47C248.231 1007.7 247.5 1007.8 246.636 1007.77C245.652 1007.73 244.784 1007.52 244.034 1007.11C243.284 1006.7 242.655 1006.15 242.148 1005.45C241.648 1004.75 241.269 1003.94 241.011 1003.01C240.761 1002.08 240.636 1001.08 240.636 1000C240.636 998.977 240.788 998.042 241.091 997.193C241.394 996.345 241.814 995.602 242.352 994.966C242.898 994.33 243.534 993.822 244.261 993.443C244.996 993.057 245.788 992.818 246.636 992.727C247.394 992.652 248.083 992.686 248.705 992.83C249.326 992.966 249.837 993.174 250.239 993.455C250.64 993.727 250.894 994.03 251 994.364H251.136V993.091H253.545V1003.36C253.545 1004 253.723 1004.56 254.08 1005.05C254.436 1005.53 254.955 1005.77 255.636 1005.77C256.409 1005.77 257 1005.51 257.409 1004.98C257.826 1004.45 258.11 1003.63 258.261 1002.52C258.42 1001.42 258.5 1000 258.5 998.273C258.5 997.258 258.36 996.258 258.08 995.273C257.807 994.28 257.39 993.352 256.83 992.489C256.277 991.625 255.576 990.864 254.727 990.205C253.879 989.545 252.883 989.03 251.739 988.659C250.602 988.28 249.311 988.091 247.864 988.091C246.083 988.091 244.489 988.367 243.08 988.92C241.678 989.466 240.485 990.265 239.5 991.318C238.523 992.364 237.777 993.636 237.261 995.136C236.754 996.629 236.5 998.326 236.5 1000.23C236.5 1002.16 236.754 1003.88 237.261 1005.38C237.777 1006.88 238.534 1008.14 239.534 1009.17C240.542 1010.2 241.788 1010.98 243.273 1011.51C244.758 1012.05 246.47 1012.32 248.409 1012.32C249.242 1012.32 250.064 1012.24 250.875 1012.08C251.686 1011.92 252.402 1011.75 253.023 1011.56C253.644 1011.37 254.091 1011.23 254.364 1011.14L255 1013.23C254.53 1013.42 253.917 1013.62 253.159 1013.82C252.409 1014.02 251.606 1014.18 250.75 1014.31C249.902 1014.44 249.091 1014.5 248.318 1014.5ZM247 1005.45C248.015 1005.45 248.837 1005.25 249.466 1004.84C250.095 1004.43 250.553 1003.81 250.841 1002.99C251.129 1002.16 251.273 1001.12 251.273 999.864C251.273 998.591 251.114 997.598 250.795 996.886C250.477 996.174 250.008 995.674 249.386 995.386C248.765 995.098 248 994.955 247.091 994.955C246.227 994.955 245.489 995.182 244.875 995.636C244.269 996.083 243.803 996.682 243.477 997.432C243.159 998.174 243 998.985 243 999.864C243 1000.83 243.129 1001.75 243.386 1002.6C243.644 1003.45 244.064 1004.14 244.648 1004.67C245.231 1005.19 246.015 1005.45 247 1005.45Z" fill="#24242D" fill-opacity="0.5"/>
<path d="M264.878 990.909H267.56V1009.64C267.56 1010.71 267.374 1011.64 267.003 1012.43C266.639 1013.22 266.086 1013.83 265.344 1014.26C264.609 1014.69 263.681 1014.91 262.56 1014.91C262.469 1014.91 262.378 1014.91 262.287 1014.91C262.196 1014.91 262.105 1014.91 262.014 1014.91V1012.41C262.105 1012.41 262.188 1012.41 262.264 1012.41C262.34 1012.41 262.423 1012.41 262.514 1012.41C263.332 1012.41 263.931 1012.17 264.31 1011.68C264.688 1011.2 264.878 1010.52 264.878 1009.64V990.909ZM266.196 988C265.673 988 265.223 987.822 264.844 987.466C264.473 987.11 264.287 986.682 264.287 986.182C264.287 985.682 264.473 985.254 264.844 984.898C265.223 984.542 265.673 984.364 266.196 984.364C266.719 984.364 267.166 984.542 267.537 984.898C267.916 985.254 268.105 985.682 268.105 986.182C268.105 986.682 267.916 987.11 267.537 987.466C267.166 987.822 266.719 988 266.196 988Z" fill="#24242D" fill-opacity="0.5"/>
<path d="M279.562 1008.73C277.987 1008.73 276.604 1008.35 275.415 1007.6C274.233 1006.85 273.309 1005.8 272.642 1004.45C271.983 1003.11 271.653 1001.53 271.653 999.727C271.653 997.909 271.983 996.322 272.642 994.966C273.309 993.61 274.233 992.557 275.415 991.807C276.604 991.057 277.987 990.682 279.562 990.682C281.138 990.682 282.517 991.057 283.699 991.807C284.888 992.557 285.813 993.61 286.472 994.966C287.138 996.322 287.472 997.909 287.472 999.727C287.472 1001.53 287.138 1003.11 286.472 1004.45C285.813 1005.8 284.888 1006.85 283.699 1007.6C282.517 1008.35 281.138 1008.73 279.562 1008.73ZM279.562 1006.32C280.759 1006.32 281.744 1006.01 282.517 1005.4C283.29 1004.78 283.862 1003.98 284.233 1002.98C284.604 1001.98 284.79 1000.89 284.79 999.727C284.79 998.561 284.604 997.473 284.233 996.466C283.862 995.458 283.29 994.644 282.517 994.023C281.744 993.402 280.759 993.091 279.562 993.091C278.366 993.091 277.381 993.402 276.608 994.023C275.835 994.644 275.263 995.458 274.892 996.466C274.521 997.473 274.335 998.561 274.335 999.727C274.335 1000.89 274.521 1001.98 274.892 1002.98C275.263 1003.98 275.835 1004.78 276.608 1005.4C277.381 1006.01 278.366 1006.32 279.562 1006.32Z" fill="#24242D" fill-opacity="0.5"/>
<path d="M303.929 994.818L301.52 995.5C301.368 995.098 301.145 994.708 300.849 994.33C300.562 993.943 300.168 993.625 299.668 993.375C299.168 993.125 298.527 993 297.747 993C296.679 993 295.789 993.246 295.077 993.739C294.372 994.223 294.02 994.841 294.02 995.591C294.02 996.258 294.262 996.784 294.747 997.17C295.232 997.557 295.99 997.879 297.02 998.136L299.611 998.773C301.171 999.152 302.334 999.731 303.099 1000.51C303.865 1001.28 304.247 1002.28 304.247 1003.5C304.247 1004.5 303.959 1005.39 303.384 1006.18C302.815 1006.97 302.02 1007.59 300.997 1008.05C299.974 1008.5 298.785 1008.73 297.429 1008.73C295.649 1008.73 294.175 1008.34 293.009 1007.57C291.842 1006.8 291.103 1005.67 290.793 1004.18L293.338 1003.55C293.58 1004.48 294.039 1005.19 294.713 1005.66C295.395 1006.13 296.285 1006.36 297.384 1006.36C298.634 1006.36 299.626 1006.1 300.361 1005.57C301.103 1005.03 301.474 1004.39 301.474 1003.64C301.474 1003.03 301.262 1002.52 300.838 1002.11C300.414 1001.7 299.762 1001.39 298.884 1001.18L295.974 1000.5C294.376 1000.12 293.202 999.534 292.452 998.739C291.709 997.936 291.338 996.932 291.338 995.727C291.338 994.742 291.615 993.871 292.168 993.114C292.728 992.356 293.49 991.761 294.452 991.33C295.421 990.898 296.52 990.682 297.747 990.682C299.474 990.682 300.83 991.061 301.815 991.818C302.808 992.576 303.512 993.576 303.929 994.818Z" fill="#24242D" fill-opacity="0.5"/>
<path d="M315.602 1008.73C313.92 1008.73 312.47 1008.36 311.25 1007.61C310.038 1006.86 309.102 1005.82 308.443 1004.48C307.792 1003.13 307.466 1001.56 307.466 999.773C307.466 997.985 307.792 996.409 308.443 995.045C309.102 993.674 310.019 992.606 311.193 991.841C312.375 991.068 313.754 990.682 315.33 990.682C316.239 990.682 317.136 990.833 318.023 991.136C318.909 991.439 319.716 991.932 320.443 992.614C321.17 993.288 321.75 994.182 322.182 995.295C322.614 996.409 322.83 997.78 322.83 999.409V1000.55H309.375V998.227H320.102C320.102 997.242 319.905 996.364 319.511 995.591C319.125 994.818 318.572 994.208 317.852 993.761C317.14 993.314 316.299 993.091 315.33 993.091C314.261 993.091 313.337 993.356 312.557 993.886C311.784 994.409 311.189 995.091 310.773 995.932C310.356 996.773 310.148 997.674 310.148 998.636V1000.18C310.148 1001.5 310.375 1002.62 310.83 1003.53C311.292 1004.44 311.932 1005.14 312.75 1005.61C313.568 1006.08 314.519 1006.32 315.602 1006.32C316.307 1006.32 316.943 1006.22 317.511 1006.02C318.087 1005.82 318.583 1005.52 319 1005.11C319.417 1004.7 319.739 1004.2 319.966 1003.59L322.557 1004.32C322.284 1005.2 321.826 1005.97 321.182 1006.64C320.538 1007.3 319.742 1007.81 318.795 1008.18C317.848 1008.55 316.784 1008.73 315.602 1008.73Z" fill="#24242D" fill-opacity="0.5"/>
<path d="M332.045 1008.77C330.939 1008.77 329.936 1008.56 329.034 1008.15C328.133 1007.72 327.417 1007.11 326.886 1006.32C326.356 1005.52 326.091 1004.55 326.091 1003.41C326.091 1002.41 326.288 1001.6 326.682 1000.98C327.076 1000.35 327.602 999.856 328.261 999.5C328.92 999.144 329.648 998.879 330.443 998.705C331.246 998.523 332.053 998.379 332.864 998.273C333.924 998.136 334.784 998.034 335.443 997.966C336.11 997.89 336.595 997.765 336.898 997.591C337.208 997.417 337.364 997.114 337.364 996.682V996.591C337.364 995.47 337.057 994.598 336.443 993.977C335.837 993.356 334.917 993.045 333.682 993.045C332.402 993.045 331.398 993.326 330.67 993.886C329.943 994.447 329.432 995.045 329.136 995.682L326.591 994.773C327.045 993.712 327.652 992.886 328.409 992.295C329.174 991.697 330.008 991.28 330.909 991.045C331.818 990.803 332.712 990.682 333.591 990.682C334.152 990.682 334.795 990.75 335.523 990.886C336.258 991.015 336.966 991.284 337.648 991.693C338.337 992.102 338.909 992.72 339.364 993.545C339.818 994.371 340.045 995.477 340.045 996.864V1008.36H337.364V1006H337.227C337.045 1006.38 336.742 1006.78 336.318 1007.22C335.894 1007.65 335.33 1008.02 334.625 1008.32C333.92 1008.62 333.061 1008.77 332.045 1008.77ZM332.455 1006.36C333.515 1006.36 334.409 1006.16 335.136 1005.74C335.871 1005.32 336.424 1004.78 336.795 1004.13C337.174 1003.47 337.364 1002.77 337.364 1002.05V999.591C337.25 999.727 337 999.852 336.614 999.966C336.235 1000.07 335.795 1000.17 335.295 1000.25C334.803 1000.33 334.322 1000.39 333.852 1000.45C333.39 1000.51 333.015 1000.55 332.727 1000.59C332.03 1000.68 331.379 1000.83 330.773 1001.03C330.174 1001.23 329.689 1001.53 329.318 1001.93C328.955 1002.33 328.773 1002.86 328.773 1003.55C328.773 1004.48 329.117 1005.18 329.807 1005.66C330.504 1006.13 331.386 1006.36 332.455 1006.36Z" fill="#24242D" fill-opacity="0.5"/>
<path d="M352.713 990.909V993.182H343.304V990.909H352.713ZM346.122 1008.36V988.5C346.122 987.5 346.357 986.667 346.827 986C347.296 985.333 347.906 984.833 348.656 984.5C349.406 984.167 350.198 984 351.031 984C351.69 984 352.228 984.053 352.645 984.159C353.062 984.265 353.372 984.364 353.577 984.455L352.804 986.773C352.668 986.727 352.478 986.67 352.236 986.602C352.001 986.534 351.69 986.5 351.304 986.5C350.418 986.5 349.777 986.723 349.384 987.17C348.997 987.617 348.804 988.273 348.804 989.136V1008.36H346.122Z" fill="#24242D" fill-opacity="0.5"/>
<path d="M362.844 1008.73C361.268 1008.73 359.885 1008.35 358.696 1007.6C357.514 1006.85 356.59 1005.8 355.923 1004.45C355.264 1003.11 354.935 1001.53 354.935 999.727C354.935 997.909 355.264 996.322 355.923 994.966C356.59 993.61 357.514 992.557 358.696 991.807C359.885 991.057 361.268 990.682 362.844 990.682C364.42 990.682 365.798 991.057 366.98 991.807C368.17 992.557 369.094 993.61 369.753 994.966C370.42 996.322 370.753 997.909 370.753 999.727C370.753 1001.53 370.42 1003.11 369.753 1004.45C369.094 1005.8 368.17 1006.85 366.98 1007.6C365.798 1008.35 364.42 1008.73 362.844 1008.73ZM362.844 1006.32C364.041 1006.32 365.026 1006.01 365.798 1005.4C366.571 1004.78 367.143 1003.98 367.514 1002.98C367.885 1001.98 368.071 1000.89 368.071 999.727C368.071 998.561 367.885 997.473 367.514 996.466C367.143 995.458 366.571 994.644 365.798 994.023C365.026 993.402 364.041 993.091 362.844 993.091C361.647 993.091 360.662 993.402 359.889 994.023C359.116 994.644 358.545 995.458 358.173 996.466C357.802 997.473 357.616 998.561 357.616 999.727C357.616 1000.89 357.802 1001.98 358.173 1002.98C358.545 1003.98 359.116 1004.78 359.889 1005.4C360.662 1006.01 361.647 1006.32 362.844 1006.32Z" fill="#24242D" fill-opacity="0.5"/>
<path d="M377.528 997.864V1008.36H374.847V990.909H377.438V993.636H377.665C378.074 992.75 378.695 992.038 379.528 991.5C380.362 990.955 381.437 990.682 382.756 990.682C383.937 990.682 384.972 990.924 385.858 991.409C386.744 991.886 387.434 992.614 387.926 993.591C388.419 994.561 388.665 995.788 388.665 997.273V1008.36H385.983V997.455C385.983 996.083 385.627 995.015 384.915 994.25C384.203 993.477 383.225 993.091 381.983 993.091C381.127 993.091 380.362 993.277 379.688 993.648C379.021 994.019 378.494 994.561 378.108 995.273C377.722 995.985 377.528 996.848 377.528 997.864Z" fill="#24242D" fill-opacity="0.5"/>
<path d="M405.929 994.818L403.52 995.5C403.368 995.098 403.145 994.708 402.849 994.33C402.562 993.943 402.168 993.625 401.668 993.375C401.168 993.125 400.527 993 399.747 993C398.679 993 397.789 993.246 397.077 993.739C396.372 994.223 396.02 994.841 396.02 995.591C396.02 996.258 396.262 996.784 396.747 997.17C397.232 997.557 397.99 997.879 399.02 998.136L401.611 998.773C403.171 999.152 404.334 999.731 405.099 1000.51C405.865 1001.28 406.247 1002.28 406.247 1003.5C406.247 1004.5 405.959 1005.39 405.384 1006.18C404.815 1006.97 404.02 1007.59 402.997 1008.05C401.974 1008.5 400.785 1008.73 399.429 1008.73C397.649 1008.73 396.175 1008.34 395.009 1007.57C393.842 1006.8 393.103 1005.67 392.793 1004.18L395.338 1003.55C395.58 1004.48 396.039 1005.19 396.713 1005.66C397.395 1006.13 398.285 1006.36 399.384 1006.36C400.634 1006.36 401.626 1006.1 402.361 1005.57C403.103 1005.03 403.474 1004.39 403.474 1003.64C403.474 1003.03 403.262 1002.52 402.838 1002.11C402.414 1001.7 401.762 1001.39 400.884 1001.18L397.974 1000.5C396.376 1000.12 395.202 999.534 394.452 998.739C393.709 997.936 393.338 996.932 393.338 995.727C393.338 994.742 393.615 993.871 394.168 993.114C394.728 992.356 395.49 991.761 396.452 991.33C397.421 990.898 398.52 990.682 399.747 990.682C401.474 990.682 402.83 991.061 403.815 991.818C404.808 992.576 405.512 993.576 405.929 994.818Z" fill="#24242D" fill-opacity="0.5"/>
<path d="M417.375 1008.73C415.799 1008.73 414.417 1008.35 413.227 1007.6C412.045 1006.85 411.121 1005.8 410.455 1004.45C409.795 1003.11 409.466 1001.53 409.466 999.727C409.466 997.909 409.795 996.322 410.455 994.966C411.121 993.61 412.045 992.557 413.227 991.807C414.417 991.057 415.799 990.682 417.375 990.682C418.951 990.682 420.33 991.057 421.511 991.807C422.701 992.557 423.625 993.61 424.284 994.966C424.951 996.322 425.284 997.909 425.284 999.727C425.284 1001.53 424.951 1003.11 424.284 1004.45C423.625 1005.8 422.701 1006.85 421.511 1007.6C420.33 1008.35 418.951 1008.73 417.375 1008.73ZM417.375 1006.32C418.572 1006.32 419.557 1006.01 420.33 1005.4C421.102 1004.78 421.674 1003.98 422.045 1002.98C422.417 1001.98 422.602 1000.89 422.602 999.727C422.602 998.561 422.417 997.473 422.045 996.466C421.674 995.458 421.102 994.644 420.33 994.023C419.557 993.402 418.572 993.091 417.375 993.091C416.178 993.091 415.193 993.402 414.42 994.023C413.648 994.644 413.076 995.458 412.705 996.466C412.333 997.473 412.148 998.561 412.148 999.727C412.148 1000.89 412.333 1001.98 412.705 1002.98C413.076 1003.98 413.648 1004.78 414.42 1005.4C415.193 1006.01 416.178 1006.32 417.375 1006.32Z" fill="#24242D" fill-opacity="0.5"/>
<path d="M436.469 1008.73C434.893 1008.73 433.51 1008.35 432.321 1007.6C431.139 1006.85 430.215 1005.8 429.548 1004.45C428.889 1003.11 428.56 1001.53 428.56 999.727C428.56 997.909 428.889 996.322 429.548 994.966C430.215 993.61 431.139 992.557 432.321 991.807C433.51 991.057 434.893 990.682 436.469 990.682C438.045 990.682 439.423 991.057 440.605 991.807C441.795 992.557 442.719 993.61 443.378 994.966C444.045 996.322 444.378 997.909 444.378 999.727C444.378 1001.53 444.045 1003.11 443.378 1004.45C442.719 1005.8 441.795 1006.85 440.605 1007.6C439.423 1008.35 438.045 1008.73 436.469 1008.73ZM436.469 1006.32C437.666 1006.32 438.651 1006.01 439.423 1005.4C440.196 1004.78 440.768 1003.98 441.139 1002.98C441.51 1001.98 441.696 1000.89 441.696 999.727C441.696 998.561 441.51 997.473 441.139 996.466C440.768 995.458 440.196 994.644 439.423 994.023C438.651 993.402 437.666 993.091 436.469 993.091C435.272 993.091 434.287 993.402 433.514 994.023C432.741 994.644 432.17 995.458 431.798 996.466C431.427 997.473 431.241 998.561 431.241 999.727C431.241 1000.89 431.427 1001.98 431.798 1002.98C432.17 1003.98 432.741 1004.78 433.514 1005.4C434.287 1006.01 435.272 1006.32 436.469 1006.32Z" fill="#24242D" fill-opacity="0.5"/>
<path d="M455.562 1008.73C453.987 1008.73 452.604 1008.35 451.415 1007.6C450.233 1006.85 449.309 1005.8 448.642 1004.45C447.983 1003.11 447.653 1001.53 447.653 999.727C447.653 997.909 447.983 996.322 448.642 994.966C449.309 993.61 450.233 992.557 451.415 991.807C452.604 991.057 453.987 990.682 455.562 990.682C457.138 990.682 458.517 991.057 459.699 991.807C460.888 992.557 461.812 993.61 462.472 994.966C463.138 996.322 463.472 997.909 463.472 999.727C463.472 1001.53 463.138 1003.11 462.472 1004.45C461.812 1005.8 460.888 1006.85 459.699 1007.6C458.517 1008.35 457.138 1008.73 455.562 1008.73ZM455.562 1006.32C456.759 1006.32 457.744 1006.01 458.517 1005.4C459.29 1004.78 459.862 1003.98 460.233 1002.98C460.604 1001.98 460.79 1000.89 460.79 999.727C460.79 998.561 460.604 997.473 460.233 996.466C459.862 995.458 459.29 994.644 458.517 994.023C457.744 993.402 456.759 993.091 455.562 993.091C454.366 993.091 453.381 993.402 452.608 994.023C451.835 994.644 451.263 995.458 450.892 996.466C450.521 997.473 450.335 998.561 450.335 999.727C450.335 1000.89 450.521 1001.98 450.892 1002.98C451.263 1003.98 451.835 1004.78 452.608 1005.4C453.381 1006.01 454.366 1006.32 455.562 1006.32Z" fill="#24242D" fill-opacity="0.5"/>
</g>
<rect x="30" y="205" width="638" height="750" rx="152" fill="url(#paint2_radial_191_69)"/>
<rect x="29.5" y="204.5" width="639" height="751" rx="152.5" stroke="black" stroke-opacity="0.5"/>
<rect x="50" y="227" width="597" height="706" rx="130" fill="url(#paint3_radial_191_69)"/>
<rect x="49.5" y="226.5" width="598" height="707" rx="130.5" stroke="black" stroke-opacity="0.5"/>
<rect x="103" y="276" width="492" height="608" rx="84" fill="#202020"/>
<rect x="102.5" y="275.5" width="493" height="609" rx="84.5" stroke="black" stroke-opacity="0.5"/>
<g filter="url(#filter1_d_191_69)">
<rect x="664" y="368" width="34" height="127" rx="13" fill="#2F2F2F"/>
<mask id="mask0_191_69" style="mask-type:alpha" maskUnits="userSpaceOnUse" x="664" y="368" width="34" height="127">
<rect x="664" y="368" width="34" height="127" rx="13" fill="#070B10"/>
</mask>
<g mask="url(#mask0_191_69)">
<rect x="664" y="378" width="34" height="5" rx="2.5" fill="#3A3B43"/>
<rect x="698" y="485" width="34" height="5" rx="2.5" transform="rotate(-180 698 485)" fill="#979AA0"/>
<rect x="664" y="398" width="34" height="7" rx="3.5" fill="#676B70"/>
<rect x="698" y="465" width="34" height="7" rx="3.5" transform="rotate(-180 698 465)" fill="#979AA0"/>
<rect x="664" y="422" width="34" height="7" rx="3.5" fill="#979AA0"/>
<rect x="664" y="368" width="34" height="5" rx="2.5" fill="#282C31"/>
<rect x="698" y="495" width="34" height="5" rx="2.5" transform="rotate(-180 698 495)" fill="#979AA0"/>
<rect x="664" y="388" width="34" height="5" rx="2.5" fill="#565A5F"/>
<rect x="698" y="475" width="34" height="5" rx="2.5" transform="rotate(-180 698 475)" fill="#979AA0"/>
<rect x="664" y="410" width="34" height="7" rx="3.5" fill="#979AA0"/>
<rect x="698" y="453" width="34" height="7" rx="3.5" transform="rotate(-180 698 453)" fill="#979AA0"/>
<rect x="664" y="434" width="34" height="7" rx="3.5" fill="#979AA0"/>
<rect x="698" y="485" width="34" height="5" rx="2.5" transform="rotate(-180 698 485)" fill="#3A3B43"/>
<rect x="698" y="465" width="34" height="7" rx="3.5" transform="rotate(-180 698 465)" fill="#676B70"/>
<rect x="698" y="495" width="34" height="5" rx="2.5" transform="rotate(-180 698 495)" fill="#282C31"/>
<rect x="698" y="475" width="34" height="5" rx="2.5" transform="rotate(-180 698 475)" fill="#565A5F"/>
</g>
</g>
<defs>
<filter id="filter0_i_191_69" x="234" y="984" width="229.472" height="34.9092" filterUnits="userSpaceOnUse" color-interpolation-filters="sRGB">
<feFlood flood-opacity="0" result="BackgroundImageFix"/>
<feBlend mode="normal" in="SourceGraphic" in2="BackgroundImageFix" result="shape"/>
<feColorMatrix in="SourceAlpha" type="matrix" values="0 0 0 0 0 0 0 0 0 0 0 0 0 0 0 0 0 0 127 0" result="hardAlpha"/>
<feOffset dy="4"/>
<feGaussianBlur stdDeviation="2"/>
<feComposite in2="hardAlpha" operator="arithmetic" k2="-1" k3="1"/>
<feColorMatrix type="matrix" values="0 0 0 0 0 0 0 0 0 0 0 0 0 0 0 0 0 0 0.4 0"/>
<feBlend mode="normal" in2="shape" result="effect1_innerShadow_191_69"/>
</filter>
<filter id="filter1_d_191_69" x="651.5" y="358" width="54" height="147" filterUnits="userSpaceOnUse" color-interpolation-filters="sRGB">
<feFlood flood-opacity="0" result="BackgroundImageFix"/>
<feColorMatrix in="SourceAlpha" type="matrix" values="0 0 0 0 0 0 0 0 0 0 0 0 0 0 0 0 0 0 127 0" result="hardAlpha"/>
<feOffset dx="-2.5"/>
<feGaussianBlur stdDeviation="5"/>
<feComposite in2="hardAlpha" operator="out"/>
<feColorMatrix type="matrix" values="0 0 0 0 0 0 0 0 0 0 0 0 0 0 0 0 0 0 0.54 0"/>
<feBlend mode="normal" in2="BackgroundImageFix" result="effect1_dropShadow_191_69"/>
<feBlend mode="normal" in="SourceGraphic" in2="effect1_dropShadow_191_69" result="shape"/>
</filter>
<linearGradient id="paint0_linear_191_69" x1="349" y1="0" x2="349" y2="236.5" gradientUnits="userSpaceOnUse">
<stop stop-color="#6B6A70"/>
<stop offset="1" stop-color="#373541"/>
</linearGradient>
<linearGradient id="paint1_linear_191_69" x1="349" y1="1160.5" x2="349" y2="924" gradientUnits="userSpaceOnUse">
<stop stop-color="#3F3D45"/>
<stop offset="1" stop-color="#2E3036"/>
</linearGradient>
<radialGradient id="paint2_radial_191_69" cx="0" cy="0" r="1" gradientUnits="userSpaceOnUse" gradientTransform="translate(349 580) rotate(90) scale(375 379)">
<stop stop-color="#3D404A"/>
<stop offset="0.888" stop-color="#747884"/>
<stop offset="0.942906" stop-color="#5E6066"/>
<stop offset="1" stop-color="#46494F"/>
</radialGradient>
<radialGradient id="paint3_radial_191_69" cx="0" cy="0" r="1" gradientUnits="userSpaceOnUse" gradientTransform="translate(348 553) rotate(89.9246) scale(380 360.015)">
<stop stop-color="#3E3B40"/>
<stop offset="0.841346" stop-color="#343136"/>
<stop offset="1" stop-color="#020000"/>
</radialGradient>
</defs>
</svg>
